<?xml version="1.0" encoding="utf-8"?>
<!-- Generator: Adobe Illustrator 18.1.1, SVG Export Plug-In . SVG Version: 6.00 Build 0)  -->
<!DOCTYPE svg PUBLIC "-//W3C//DTD SVG 1.1//EN" "http://www.w3.org/Graphics/SVG/1.1/DTD/svg11.dtd">
<svg version="1.1" id="Layer_1" xmlns="http://www.w3.org/2000/svg" xmlns:xlink="http://www.w3.org/1999/xlink" x="0px" y="0px"
	 viewBox="0 0 85.5 62.8" enable-background="new 0 0 85.5 62.8" xml:space="preserve">
<g id="V6OW3u.tif">
	<g>
		<path fill="#FFFFFF" d="M12,34.5c0-2.1,0-4.2,0-6.3c0.1-0.1,0.2-0.1,0.2-0.2c0.6-3.5,2.1-6.5,4.4-9.1c4.7-5.5,10.9-8.2,17.8-9.6
			c1.4-0.3,2.9-0.5,4.3-0.7c2.2,0,4.4,0,6.6,0c0.2,0.1,0.5,0.2,0.7,0.2c6.4,0.6,12.3,2.6,17.4,6.4c11.2,8.2,11.5,23.4,1,31.9
			c-6.1,5-13.4,7-21.1,7.3c-5.6,0.2-11.1-0.7-16.3-2.9c-5.9-2.5-10.7-6.1-13.5-12.1C12.9,37.8,12.5,36.1,12,34.5z M41.9,11
			c-2.6,0.3-5.3,0.5-7.8,1c-5.9,1.2-11.2,3.7-15.3,8.3c-2.8,3.1-3.8,6.8-3.8,10.8c0,0.6,0.2,1.5,0.6,1.6c1.5,0.7,2.3,2.1,3.3,3.3
			c1.2,1.5,2.6,2.4,4.7,1.9c1.4-0.4,2.9-0.1,4.1,0.8c0.6,0.4,1.2,0.7,1.8,1.1c3.1,2.2,6.3,2.8,9.8,1c1.8-0.9,3.6-0.9,5.4,0.1
			c2.1,1.2,4.1,0.9,6-0.3c1.5-0.9,3.1-1.5,4.9-1.4c1.2,0.1,2.4,0.1,3.6,0c0.8-0.1,1.9-0.3,2.2-0.8c1.4-2.5,3.6-3.8,6.3-4.3
			c0.7-0.1,1.5-0.9,1.7-1.6c0.3-1,0.1-2.2,0-3.2c-0.8-5.5-3.8-9.5-8.3-12.5C55.3,12.7,48.8,11.2,41.9,11z M68.6,36.7
			c-2.3,0.2-4,1-5.1,3c-0.4,0.8-1.3,1.5-2.2,1.8c-1.4,0.4-3,0.6-4.5,0.4c-1.8-0.2-3.5,0.1-5,1.1c-2.3,1.4-4.9,2.1-7.4,0.8
			c-1.9-1-3.5-0.8-5.3,0c-3.2,1.4-6.4,1.2-9.4-0.6c-1.2-0.7-2.4-1.5-3.6-2.1c-0.6-0.3-1.4-0.4-2.2-0.4c-0.8,0-1.6,0.2-2.4,0.1
			c-1.9-0.1-3.2-1.3-4.4-2.6c-0.6-0.7-1.2-1.4-1.7-2.1c-0.1,0.3-0.1,0.6,0,0.8c1,3.2,2.9,5.7,5.4,7.9c5.2,4.4,11.4,6.4,18.1,7
			c6.9,0.5,13.5-0.6,19.7-3.9C63.2,45.2,66.8,41.8,68.6,36.7z"/>
		<path fill="#FFFFFF" d="M41.9,32.8c-3.4-0.2-6.7-0.9-9.3-3.6c-2.1-2.3-2.1-5.4,0.1-7.7c3.2-3.2,7.1-3.8,11.3-3.3
			c2.5,0.3,4.9,1.1,6.8,2.9c3.1,2.9,2.8,6.8-0.7,9.3C47.7,32.1,44.9,32.7,41.9,32.8z M42,20.8c-2.5-0.1-4.8,0.4-6.8,2
			c-2,1.5-2,3.6-0.1,5.2c3.4,2.8,10.3,2.8,13.7,0c1.9-1.6,1.9-3.6,0-5.1C46.8,21.3,44.5,20.8,42,20.8z"/>
		<path fill="#FFFFFF" d="M36.7,36.7c0,1.1-1.1,1.7-1.9,1.3c-1.4-0.8-2.8-1.6-4.2-2.5c-0.6-0.4-0.8-1.1-0.3-1.8
			c0.4-0.7,1.1-0.8,1.7-0.4c1.4,0.8,2.7,1.6,4.1,2.5C36.5,36,36.6,36.5,36.7,36.7z"/>
		<path fill="#FFFFFF" d="M41.3,15.5c-1.8-0.3-3.3-0.5-4.7-0.9c-0.7-0.2-1.1-0.8-0.9-1.5c0.2-0.8,0.8-1.2,1.6-1
			c1.3,0.2,2.7,0.4,4,0.7c0.8,0.2,1.4,0.7,1.1,1.5C42.2,14.8,41.6,15.2,41.3,15.5z"/>
		<path fill="#FFFFFF" d="M57.4,20.5c0.4-0.4,0.7-1,1.2-1.1c0.4-0.1,1.3,0.2,1.4,0.6c0.7,1.4,1.2,2.9,1.7,4.4
			c0.1,0.4-0.3,1.2-0.7,1.3c-0.4,0.2-1.3,0-1.5-0.3C58.7,24,58.1,22.3,57.4,20.5z"/>
		<path fill="#FFFFFF" d="M25.8,32.1c-1.7-0.5-3.2-0.9-4.6-1.5c-0.4-0.2-0.8-1.1-0.6-1.5c0.1-0.4,0.9-1,1.3-0.9
			c1.4,0.3,2.9,0.7,4.2,1.2c0.7,0.2,1.1,0.9,0.8,1.6C26.6,31.5,26.1,31.8,25.8,32.1z"/>
		<path fill="#FFFFFF" d="M60,30.9c0,1.3-0.7,1.9-1.6,1.6c-1.3-0.4-2.7-0.8-4-1.3c-0.8-0.3-1.1-0.9-0.8-1.7c0.3-0.8,0.9-1,1.7-0.8
			c1.3,0.4,2.6,0.8,3.9,1.3C59.6,30.2,59.9,30.8,60,30.9z"/>
		<path fill="#FFFFFF" d="M50.2,36.4c-0.1,0.2-0.3,0.6-0.6,0.9c-1.1,0.8-2.2,1.5-3.3,2.2c-0.7,0.4-1.4,0.3-1.8-0.3
			c-0.5-0.7-0.3-1.4,0.4-1.8c1.1-0.8,2.2-1.5,3.3-2.2C49.2,34.4,50.2,35,50.2,36.4z"/>
		<path fill="#FFFFFF" d="M48.5,17.5c-0.4-0.4-1-0.7-1-1.1c-0.1-0.5,0.2-1.3,0.6-1.5c1.4-0.6,2.8-1.1,4.3-1.4
			c0.3-0.1,1.1,0.4,1.2,0.8c0.1,0.4-0.1,1.4-0.4,1.5C51.7,16.5,50.2,17,48.5,17.5z"/>
		<path fill="#FFFFFF" d="M23.7,18.7c0.6,0.4,1.2,0.7,1.3,1c0.1,0.4,0.1,1.2-0.2,1.5c-1.1,0.9-2.3,1.8-3.6,2.5c-0.3,0.2-1,0-1.3-0.3
			c-0.3-0.3-0.5-1.1-0.4-1.3C20.8,20.9,22.2,19.8,23.7,18.7z"/>
		<path fill="#FFFFFF" d="M29.5,14.3c1,0,3.4,3.4,3.2,4.3c-0.3,1-1.4,1.4-2.1,0.6c-0.9-1-1.6-2.1-2.3-3.2
			C27.9,15.2,28.6,14.3,29.5,14.3z"/>
	</g>
</g>
</svg>
